<?xml version="1.0" encoding="UTF-8"?>
<!DOCTYPE svg PUBLIC "-//W3C//DTD SVG 1.1//EN" "http://www.w3.org/Graphics/SVG/1.1/DTD/svg11.dtd">
<!-- Creator: CorelDRAW 2020 (64 Bit) -->
<svg xmlns="http://www.w3.org/2000/svg" xml:space="preserve" width="5.4186mm" height="5.4186mm" version="1.1" style="shape-rendering:geometricPrecision; text-rendering:geometricPrecision; image-rendering:optimizeQuality; fill-rule:evenodd; clip-rule:evenodd"
viewBox="0 0 541.86 541.86"
 xmlns:xlink="http://www.w3.org/1999/xlink"
 xmlns:xodm="http://www.corel.com/coreldraw/odm/2003">
 <defs>
  <style type="text/css">
   <![CDATA[
    .str0 {stroke:#ACB3B5;stroke-width:28.22;stroke-miterlimit:22.9256}
    .str1 {stroke:#ACB3B5;stroke-width:63.5;stroke-miterlimit:22.9256}
    .fil1 {fill:none}
    .fil0 {fill:#ACB3B5}
   ]]>
  </style>
 </defs>
 <g id="Camada_x0020_1">
  <metadata id="CorelCorpID_0Corel-Layer"/>
  <g id="_1912824304288">
   <path class="fil0 str0" d="M270.97 15.09l0.04 0c8.99,0 16.31,7.32 16.31,16.31l0 14.91c0,8.99 -7.32,16.32 -16.31,16.32l-0.04 0c-8.99,0 -16.31,-7.33 -16.31,-16.32l0 -14.91c0,-8.99 7.32,-16.31 16.31,-16.31z"/>
   <path class="fil0 str0" d="M270.97 479.23l0.04 0c8.99,0 16.31,7.33 16.31,16.32l0 14.91c0,8.99 -7.32,16.31 -16.31,16.31l-0.04 0c-8.99,0 -16.31,-7.32 -16.31,-16.31l0 -14.91c0,-8.99 7.32,-16.32 16.31,-16.32z"/>
   <path class="fil0 str0" d="M479.2 271.57l0 0.04c0,8.99 7.32,16.32 16.31,16.32l14.91 0c8.99,0 16.31,-7.33 16.31,-16.32l0 -0.04c0,-8.99 -7.32,-16.31 -16.31,-16.31l-14.91 0c-8.99,0 -16.31,7.32 -16.31,16.31z"/>
   <path class="fil0 str0" d="M15.09 271.57l0 0.04c0,8.99 7.32,16.32 16.31,16.32l14.91 0c8.99,0 16.32,-7.33 16.32,-16.32l0 -0.04c0,-8.99 -7.33,-16.31 -16.32,-16.31l-14.91 0c-8.99,0 -16.31,7.32 -16.31,16.31z"/>
   <path class="fil0 str0" d="M450.82 452.95l0 -0.04c6.37,-6.34 6.37,-16.69 0,-23.07l-10.55 -10.54c-6.33,-6.34 -16.69,-6.34 -23.06,0l0 0.03c-6.37,6.38 -6.37,16.73 0,23.07l10.55 10.55c6.33,6.37 16.69,6.37 23.06,0z"/>
   <path class="fil0 str0" d="M123.44 123.06l0 -0.04c6.37,-6.34 6.37,-16.69 0,-23.07l-10.55 -10.54c-6.34,-6.34 -16.69,-6.34 -23.06,0l0 0.04c-6.38,6.37 -6.38,16.73 0,23.06l10.54 10.55c6.34,6.37 16.69,6.37 23.07,0z"/>
   <path class="fil0 str0" d="M418.5 121.73l0.04 0c6.33,6.37 16.69,6.37 23.06,0l10.55 -10.55c6.33,-6.33 6.33,-16.69 0,-23.06l-0.04 0c-6.37,-6.38 -16.73,-6.38 -23.06,0l-10.55 10.54c-6.37,6.34 -6.37,16.7 0,23.07z"/>
   <path class="fil0 str0" d="M87.28 452.98l0.04 0c6.34,6.38 16.69,6.38 23.07,0l10.54 -10.54c6.34,-6.34 6.34,-16.69 0,-23.07l-0.04 0c-6.37,-6.37 -16.73,-6.37 -23.06,0l-10.55 10.55c-6.37,6.33 -6.37,16.69 0,23.06z"/>
   <path class="fil1 str1" d="M271.92 117.1c83.45,0 151.13,67.68 151.13,151.1 0,83.46 -67.68,151.13 -151.13,151.13 -83.42,0 -151.1,-67.67 -151.1,-151.13 0,-83.42 67.68,-151.1 151.1,-151.1z"/>
  </g>
 </g>
</svg>
