<svg width="20" height="20" viewBox="0 0 20 20" fill="none" xmlns="http://www.w3.org/2000/svg">
<path d="M16.6605 15.7944H11.9153C11.4523 15.7944 11.0757 16.1769 11.0757 16.6472C11.0757 17.1184 11.4523 17.5 11.9153 17.5H16.6605C17.1235 17.5 17.5 17.1184 17.5 16.6472C17.5 16.1769 17.1235 15.7944 16.6605 15.7944" fill="#2D3436"/>
<path d="M8.59085 5.75324L13.0874 9.38665C13.1959 9.47354 13.2144 9.633 13.1297 9.74408L7.79895 16.6902C7.46385 17.1193 6.97001 17.3621 6.4409 17.371L3.5308 17.4068C3.37559 17.4086 3.23979 17.3011 3.20452 17.1471L2.54313 14.2715C2.42849 13.743 2.54313 13.1965 2.87823 12.7755L8.23547 5.79624C8.32189 5.68426 8.4815 5.66456 8.59085 5.75324" fill="#636E72"/>
<path d="M15.1005 7.2212L14.2336 8.30334C14.1463 8.41352 13.9894 8.43144 13.8809 8.34365C12.8271 7.49084 10.1286 5.30237 9.37994 4.69591C9.27059 4.60633 9.2556 4.44687 9.34378 4.33579L10.1798 3.29755C10.9382 2.32111 12.2609 2.23153 13.328 3.08255L14.5537 4.05899C15.0564 4.45314 15.3915 4.97271 15.5061 5.51916C15.6384 6.12025 15.4973 6.71059 15.1005 7.2212" fill="#2D3436"/>
</svg>
