<?xml version="1.0" encoding="UTF-8"?>
<!DOCTYPE svg PUBLIC "-//W3C//DTD SVG 1.1//EN" "http://www.w3.org/Graphics/SVG/1.1/DTD/svg11.dtd">
<!-- Creator: CorelDRAW 2020 (64 Bit) -->
<svg xmlns="http://www.w3.org/2000/svg" xml:space="preserve" width="2.54mm" height="2.54mm" version="1.1" style="shape-rendering:geometricPrecision; text-rendering:geometricPrecision; image-rendering:optimizeQuality; fill-rule:evenodd; clip-rule:evenodd"
viewBox="0 0 254 254"
 xmlns:xlink="http://www.w3.org/1999/xlink"
 xmlns:xodm="http://www.corel.com/coreldraw/odm/2003">
 <defs>
  <style type="text/css">
   <![CDATA[
    .fil0 {fill:#6E6C73}
    .fil1 {fill:#9997A4}
   ]]>
  </style>
 </defs>
 <g id="Camada_x0020_1">
  <metadata id="CorelCorpID_0Corel-Layer"/>
  <g id="_2748508643744">
   <path class="fil0" d="M1.75 68.92c0.18,6.51 3.2,11.1 10.03,12.32 9.43,1.69 48.03,-1.88 61.77,1.35 18.61,4.39 31.85,19.47 34.67,38.24l0.69 10.07c0.26,10.93 4.19,23.18 9.67,31.92 6.32,10.07 11.05,14.61 20.51,21.57 20.76,15.28 46.24,12.09 71.58,12.09 -3.34,4.99 -8.63,5.88 -9.53,13.97 -0.67,5.97 4.71,12.45 10.51,12.45 8.8,0 10.98,-4.37 18.47,-11.86l5.13 -4.66c3.16,-2.77 6.26,-6.24 9.3,-9.29 4.27,-4.27 7.51,-6.05 7.7,-12.26l0 -0.99c-0.25,-6.42 -6.3,-10.54 -11.86,-16.11l-5.14 -4.64c-6.15,-5.69 -14.73,-17.01 -21.16,-17.01 -9.1,0 -12.72,4.8 -12.72,13.21 0,6.03 6.69,9.32 9.3,13.21 -10.93,0 -21.86,-0.03 -32.79,0.01 -22.57,0.08 -40.94,-16.12 -44.73,-37.47 -0.86,-4.82 -0.75,-10.56 -1.21,-15.42 -3.24,-33.81 -32.44,-62.1 -69.53,-62.1l-48.44 0c-5.98,0 -11.97,4.62 -12.22,10.39l0 1.01z"/>
   <path class="fil1" d="M210.67 57.52c-18.01,0 -40.84,-1.65 -55.99,4.19 -5.91,2.28 -16.17,6.59 -18.73,11.61 -5.16,10.09 4.99,22.84 17.63,15.19 2.1,-1.27 3.72,-2.23 6.06,-3.24 3.97,-1.72 9.35,-3.37 14.35,-3.75 10.87,-0.83 25.41,-0.02 36.68,-0.02 -4.79,7.15 -9.3,4.67 -9.3,16.63 0,4.78 5.03,9.79 12.72,9.79 6.43,0 15.01,-11.32 21.16,-17.01 1.06,-0.98 1.41,-1.04 2.45,-1.96l7.34 -7.33c4.43,-4.43 7.04,-5.47 7.21,-12.58l0 -1.12c-0.22,-4.94 -4.73,-8.04 -7.45,-10.77l-19.09 -18.59c-5.46,-5.46 -6.47,-7.46 -14.06,-7.46 -5.8,0 -11.18,6.48 -10.51,12.45 0.9,8.09 6.19,8.98 9.53,13.97z"/>
   <path class="fil1" d="M1.75 186.09c0.25,5.77 6.24,10.39 12.22,10.39l48.44 0c10.71,0 19.45,-2.27 26.99,-5.31 3.7,-1.48 7.39,-3.51 10.6,-5.55 14.48,-9.21 1.98,-28.13 -11.5,-20.79 -1.55,0.84 -2.77,1.57 -4.34,2.51 -3.1,1.84 -6.38,2.91 -10.29,3.9 -8.5,2.16 -43.17,1.27 -54.51,1.26 -5.51,0 -8.76,-0.23 -12.23,1.97 -2.22,1.4 -5.2,4.8 -5.38,8.44l0 3.18z"/>
  </g>
 </g>
</svg>
